<svg xmlns="http://www.w3.org/2000/svg" width="114" height="36" viewBox="0 0 114 36">
    <path fill="#88939E" fill-rule="evenodd" d="M30.572 28.655a5.266 5.266 0 0 1-3.224 4.145c-.85.354-1.771.46-2.692.354-.886-.106-1.771-.39-2.691-.92-1.276-.71-2.552-1.808-4.04-3.437 2.338-2.87 3.755-5.49 4.287-7.828a8.857 8.857 0 0 0 .177-3.01 5.73 5.73 0 0 0-.956-2.409c-1.099-1.595-2.94-2.516-4.994-2.516-2.055 0-3.896.957-4.995 2.516a5.744 5.744 0 0 0-.957 2.408 7.356 7.356 0 0 0 .178 3.011c.532 2.337 1.984 4.994 4.286 7.864-1.453 1.63-2.764 2.726-4.039 3.435-.92.532-1.806.815-2.692.921a5.655 5.655 0 0 1-2.692-.354 5.263 5.263 0 0 1-3.222-4.145 5.848 5.848 0 0 1 .318-2.763c.107-.353.284-.708.46-1.132.248-.568.531-1.169.816-1.772l.034-.07a387.926 387.926 0 0 1 7.793-15.904l.107-.213c.283-.532.566-1.098.85-1.629.284-.567.602-1.098.992-1.559.743-.85 1.736-1.31 2.833-1.31 1.099 0 2.09.46 2.834 1.31.39.461.709.992.991 1.56.284.53.567 1.096.85 1.628l.107.213a468.814 468.814 0 0 1 7.758 15.94v.034c.282.567.53 1.204.814 1.772.178.424.355.78.46 1.132.284.921.39 1.807.248 2.728zM16.439 26.99c-1.914-2.408-3.153-4.675-3.579-6.588-.176-.814-.211-1.523-.105-2.16a3.431 3.431 0 0 1 .566-1.488c.674-.956 1.806-1.558 3.118-1.558 1.31 0 2.479.566 3.116 1.558.284.425.497.921.567 1.487.107.638.072 1.382-.107 2.161-.424 1.877-1.663 4.145-3.576 6.588zm15.974-1.842c-.176-.425-.354-.886-.53-1.274-.284-.638-.567-1.24-.816-1.807l-.035-.036a369.454 369.454 0 0 0-7.829-16.01l-.105-.212a73.192 73.192 0 0 1-.85-1.665c-.355-.637-.709-1.31-1.277-1.948C19.838.78 18.21 0 16.474 0c-1.771 0-3.366.78-4.534 2.125-.531.637-.921 1.311-1.275 1.948a71.158 71.158 0 0 1-.85 1.665l-.106.212C6.98 11.263 4.324 16.648 1.88 21.961l-.035.07c-.248.567-.532 1.17-.815 1.807-.176.39-.355.815-.532 1.275-.46 1.311-.602 2.55-.424 3.825a7.527 7.527 0 0 0 4.604 5.88c.921.39 1.878.567 2.87.567a9.346 9.346 0 0 0 4.463-1.275c1.452-.814 2.834-1.983 4.393-3.684 1.558 1.701 2.974 2.87 4.392 3.684a9.346 9.346 0 0 0 3.541 1.204c.284.035.637.071.922.071.99 0 1.982-.177 2.869-.567 2.479-.99 4.215-3.259 4.605-5.88.283-1.239.14-2.479-.32-3.79zM67.728 12.68c1.028 0 1.559.177 1.559.177v3.153s-2.834-.957-4.606 1.062v9.316h-3.4V13.034h2.87c.282 0 .496.248.496.496v.567c.636-.744 2.018-1.417 3.08-1.417zm9.21 10.803c-1.31 0-2.338-.673-2.87-1.452v-4.746c.532-.708 1.666-1.452 2.87-1.452 2.266 0 4.002 1.417 4.002 3.825 0 2.41-1.736 3.825-4.002 3.825zm.566-10.803c-2.338 0-3.436 1.417-3.436 1.417V6.623h-3.4v19.73h2.87a.507.507 0 0 0 .496-.496v-.602s1.097 1.452 3.434 1.452c3.861 0 6.873-2.976 6.873-7.013.035-4.038-2.975-7.014-6.837-7.014zm20.438 5.774v7.934h-3.4v-7.545c0-2.195-.709-3.08-2.621-3.08-1.028 0-2.09.53-2.764 1.31v9.28h-3.4V13.034h2.692c.284 0 .496.248.496.496v.567c.992-1.027 2.303-1.417 3.613-1.417 1.488 0 2.727.425 3.72 1.275 1.203.992 1.663 2.267 1.663 4.5zm8.04 5.03c-1.31 0-2.338-.674-2.868-1.453v-4.746c.53-.708 1.664-1.452 2.868-1.452 2.267 0 4.004 1.417 4.004 3.825 0 2.41-1.737 3.825-4.004 3.825zm.567-10.804c-2.337 0-3.436 1.417-3.436 1.417V6.623h-3.4v19.73h2.87a.507.507 0 0 0 .496-.496v-.602s1.097 1.452 3.434 1.452c3.862 0 6.872-2.976 6.872-7.013 0-4.038-3.01-7.014-6.836-7.014zM55.755 26.353h3.401V13.034h-3.4v13.32zm-5.49-4.286c-.53.78-1.593 1.452-2.868 1.452-2.267 0-4.003-1.417-4.003-3.825 0-2.409 1.736-3.826 4.003-3.826 1.239 0 2.373.71 2.869 1.453v4.746zm0-8.537v.567s-1.098-1.417-3.435-1.417c-3.861 0-6.871 2.94-6.871 7.014 0 4.037 2.974 7.013 6.87 7.013 2.373 0 3.437-1.452 3.437-1.452v.602c0 .283.212.496.495.496h2.87V13.034h-2.87a.506.506 0 0 0-.495.496zm9.493-4.64a2.298 2.298 0 0 1-2.303 2.303 2.298 2.298 0 0 1-2.301-2.303c0-1.275.991-2.302 2.301-2.302 1.312.035 2.303 1.063 2.303 2.302z"/>
</svg>
