<svg xmlns="http://www.w3.org/2000/svg" width="38" height="41" viewBox="0 0 38 41">
    <path fill="#FFF" fill-rule="evenodd" d="M35.334 33.202a6.099 6.099 0 0 1-3.726 4.803c-.983.41-2.047.533-3.111.41-1.023-.123-2.047-.452-3.11-1.067-1.475-.822-2.95-2.094-4.669-3.981 2.702-3.326 4.34-6.363 4.955-9.07.287-1.273.327-2.422.203-3.49a6.648 6.648 0 0 0-1.105-2.79c-1.269-1.848-3.398-2.915-5.772-2.915-2.373 0-4.502 1.11-5.771 2.916a6.665 6.665 0 0 0-1.107 2.79 8.545 8.545 0 0 0 .205 3.488c.615 2.708 2.293 5.787 4.954 9.112-1.678 1.888-3.194 3.159-4.667 3.98-1.065.617-2.088.945-3.112 1.068a6.521 6.521 0 0 1-3.111-.41 6.096 6.096 0 0 1-3.725-4.803 6.791 6.791 0 0 1 .369-3.202c.122-.409.327-.82.531-1.311.287-.659.614-1.355.942-2.054l.04-.082a449.957 449.957 0 0 1 9.008-18.426l.122-.247c.327-.617.655-1.272.983-1.888.328-.657.695-1.272 1.146-1.806.86-.985 2.007-1.518 3.274-1.518 1.27 0 2.417.533 3.276 1.518.45.534.82 1.15 1.146 1.806.327.616.656 1.271.983 1.888l.123.247a543.79 543.79 0 0 1 8.966 18.468v.04c.327.657.614 1.395.942 2.054.204.49.409.902.531 1.311.328 1.067.451 2.094.287 3.161zM19 31.272c-2.21-2.79-3.644-5.416-4.135-7.633-.204-.943-.245-1.764-.122-2.503.082-.656.327-1.231.655-1.723.778-1.108 2.087-1.806 3.602-1.806 1.515 0 2.866.656 3.603 1.806.327.492.573 1.067.655 1.723.123.739.082 1.6-.123 2.503-.49 2.175-1.923 4.803-4.135 7.634zm18.464-2.133c-.204-.493-.41-1.027-.614-1.477-.328-.739-.655-1.436-.942-2.093l-.041-.042a428.534 428.534 0 0 0-9.048-18.55l-.122-.246a84.887 84.887 0 0 1-.983-1.93c-.409-.737-.818-1.518-1.474-2.257C22.929.903 21.046 0 19.039 0c-2.046 0-3.888.903-5.24 2.462-.613.738-1.064 1.52-1.473 2.257a82.528 82.528 0 0 1-.982 1.93l-.123.245C8.068 13.05 4.998 19.29 2.174 25.446l-.042.08c-.287.658-.614 1.355-.942 2.095-.203.45-.41.944-.614 1.477-.531 1.519-.695 2.955-.49 4.432a8.718 8.718 0 0 0 5.322 6.813A8.38 8.38 0 0 0 8.723 41c.328 0 .738-.042 1.065-.082 1.351-.164 2.743-.616 4.094-1.395 1.678-.943 3.275-2.298 5.077-4.269 1.8 1.971 3.438 3.326 5.076 4.269 1.351.78 2.743 1.231 4.094 1.395.327.04.736.082 1.064.082 1.146 0 2.292-.205 3.316-.657 2.866-1.148 4.872-3.776 5.323-6.813.327-1.436.163-2.872-.369-4.391z"/>
</svg>
