<svg xmlns="http://www.w3.org/2000/svg" width="74" height="68" viewBox="0 0 74 68">
    <path fill="#FD6E74" fill-rule="evenodd" d="M65.908 33.994l-9.385-9.216L45.3 13.706a1.463 1.463 0 0 0-.219-.145 1.443 1.443 0 0 0-.262-.174 1.415 1.415 0 0 0-.248 0 .776.776 0 0 0-.554 0 1.473 1.473 0 0 0-.277 0c-.083.041-.159.09-.233.145a1.41 1.41 0 0 0-.233.16L32.735 23.836a3.792 3.792 0 0 1-5.248 0 3.24 3.24 0 0 1-1.02-2.435 3.375 3.375 0 0 1 1.254-2.478l10.1-9.782c7.523-7.274 19.472-7.37 27.11-.217 7.022 6.75 7.452 17.8.977 25.07zm-1.603 7.55a3.792 3.792 0 0 1-5.218 0 1.46 1.46 0 0 0-.51-.304l-9.824-9.492a1.464 1.464 0 0 0-2.054.184c-.46.55-.449 1.352.028 1.888l10.203 9.884a3.408 3.408 0 0 1 .122 4.836l-.122.12a3.79 3.79 0 0 1-4.766.362c-.102-.116-.19-.246-.306-.362l-10.203-9.883a1.464 1.464 0 0 0-2.058-.127 1.446 1.446 0 0 0 .032 2.199l9.78 9.448c.074.163.18.309.308.435.144.145.306.246.464.362.48.597.742 1.338.744 2.102a3.438 3.438 0 0 1-1.137 2.536 3.778 3.778 0 0 1-3.44.927 6.3 6.3 0 0 0-1.938-4.565 6.92 6.92 0 0 0-5.51-1.826 5.775 5.775 0 0 0-1.91-5.333 6.701 6.701 0 0 0-5.407-1.796 5.775 5.775 0 0 0-1.88-5.246 6.701 6.701 0 0 0-5.408-1.797 5.775 5.775 0 0 0-1.88-5.246 6.764 6.764 0 0 0-9.314 0L8.73 35.197a19.52 19.52 0 0 1-5.262-13.274 17.616 17.616 0 0 1 5.306-12.81c7.108-6.807 18.21-7.26 25.856-1.059l-8.89 8.695a6.107 6.107 0 0 0-.263 9.16 6.733 6.733 0 0 0 9.285 0l9.517-9.203L54.481 26.85l9.868 9.738a3.406 3.406 0 0 1-.044 4.956zM42.398 59.152l-4.372 4.347a3.818 3.818 0 0 1-5.262 0 3.655 3.655 0 0 1-1.108-2.608 3.355 3.355 0 0 1 .962-2.55l4.373-4.348a3.937 3.937 0 0 1 5.349.087 3.432 3.432 0 0 1 .03 5.028l.028.044zm-11.806-2.899a3.818 3.818 0 0 1-5.262 0 3.435 3.435 0 0 1-.08-4.876l.08-.08 4.373-4.347a3.821 3.821 0 0 1 5.262 0 3.435 3.435 0 0 1 0 4.956l-4.373 4.347zm-12.55-7.043a3.435 3.435 0 0 1-.08-4.876l.08-.08 4.373-4.347a3.804 3.804 0 0 1 5.262 0 3.435 3.435 0 0 1 0 4.956l-4.373 4.347a3.821 3.821 0 0 1-5.261 0zm-7.287-7.042a3.437 3.437 0 0 1 0-4.957l4.372-4.347a3.818 3.818 0 0 1 5.262 0 3.435 3.435 0 0 1 0 4.956l-4.372 4.348a3.821 3.821 0 0 1-5.262 0zM73.429 22.01a20.928 20.928 0 0 0-6.471-15.158c-8.372-7.918-21.416-8.25-30.186-.768-8.774-7.398-21.758-6.985-30.04.956a20.477 20.477 0 0 0-6.18 14.883 22.412 22.412 0 0 0 6.544 15.81A6.165 6.165 0 0 0 8.7 44.254a6.677 6.677 0 0 0 4.664 1.855c.253.015.506.015.758 0a5.777 5.777 0 0 0 1.88 5.246 6.702 6.702 0 0 0 4.664 1.855c.252.015.506.015.758 0a5.775 5.775 0 0 0 1.88 5.246 6.684 6.684 0 0 0 4.664 1.855c.257-.062.51-.14.758-.232a6.083 6.083 0 0 0 0 .652c.09 3.665 3.147 6.565 6.833 6.477a6.688 6.688 0 0 0 4.347-1.738l4.372-4.347a6.366 6.366 0 0 0 1.24-1.725 6.717 6.717 0 0 0 6.34-1.638 5.78 5.78 0 0 0 1.88-5.216h.568A6.742 6.742 0 0 0 59 50.66a5.848 5.848 0 0 0 1.865-5.319 6.35 6.35 0 0 0 5.524-1.811 6.232 6.232 0 0 0 1.327-7.246 20.88 20.88 0 0 0 5.713-14.274z"/>
</svg>
