<svg xmlns="http://www.w3.org/2000/svg" width="71" height="71" viewBox="0 0 71 71">
    <path fill="#FE757B" fill-rule="evenodd" stroke="#FFF" stroke-width=".5" d="M58.577 24.272l9.813-.714a1.791 1.791 0 0 1 .265 3.571l-9.814.714h-.136a1.787 1.787 0 1 1-.128-3.571zm-10-14.329l5.55-8.157a1.797 1.797 0 0 1 2.971 2.022l-5.578 8.121a1.786 1.786 0 0 1-2.951-2.014l.008.028zm5.814 6.5l8.529-4.907a1.786 1.786 0 0 1 1.777 3.093l-8.527 4.879a1.786 1.786 0 0 1-1.779-3.065zM6.583 35.172l7.444-4.286 9.356 16.272-7.442 4.286a4.015 4.015 0 0 1-5.486-1.5l-5.343-9.286a4.02 4.02 0 0 1 1.471-5.486zM34.105 6.693A60.218 60.218 0 0 1 54.384 41.93l-18.643-.964L25.577 23.3l8.528-16.608zm2.086 54.579a3.815 3.815 0 1 1-6.993 3.03l-4.636-13.723 4.586-2.643 7.043 13.336zM22.884 25.786l9.357 16.25-5.757 3.315-9.386-16.25 5.786-3.315zM7.355 51.722a7.54 7.54 0 0 0 4.6 3.571 7.544 7.544 0 0 0 5.758-.75l3.685-2.142 4.415 13.028a7.386 7.386 0 1 0 13.527-5.814l-7.099-13.457 2.857-1.65 21.286 1.1a1.785 1.785 0 0 0 1.885-2.022A63.817 63.817 0 0 0 34.633 2.508a1.786 1.786 0 0 0-2.7.585l-9.742 18.972-17.386 10a7.6 7.6 0 0 0-2.793 10.371l5.343 9.286z"/>
</svg>
